<svg height="55.921" viewBox="0 0 55.92 55.921" width="55.92" xmlns="http://www.w3.org/2000/svg"><g fill="#c3dad4"><path d="m53.381 28.2v-7.86a5.073 5.073 0 0 0 -4.681-5.047l-7.3-12.749a5.03 5.03 0 0 0 -6.9-1.859l-25.019 14.567h-4.394a5.089 5.089 0 0 0 -5.087 5.084v30.5a5.089 5.089 0 0 0 5.084 5.084h43.216a5.089 5.089 0 0 0 5.084-5.084v-7.86a3.807 3.807 0 0 0 2.539-3.576v-7.626a3.807 3.807 0 0 0 -2.542-3.574zm-7.632-12.948h-11.078l8.308-4.837zm-4.032-7.043-12.1 7.043h-5.017l15.86-9.234zm-5.935-5.327a2.458 2.458 0 0 1 1.888-.254 2.492 2.492 0 0 1 1.53 1.179l-19.649 11.445h-5.018zm15.057 47.955a2.545 2.545 0 0 1 -2.539 2.542h-43.213a2.545 2.545 0 0 1 -2.542-2.542v-30.5a2.545 2.545 0 0 1 2.542-2.542h43.213a2.545 2.545 0 0 1 2.542 2.542v7.625h-7.628a7.625 7.625 0 0 0 0 15.251h7.625zm2.542-11.437a1.272 1.272 0 0 1 -1.271 1.27h-8.9a5.084 5.084 0 0 1 0-10.167h8.9a1.272 1.272 0 0 1 1.271 1.271z" transform="translate(-.003)"/><path d="m343.879 277.341a2.542 2.542 0 1 0 2.542 2.542 2.545 2.545 0 0 0 -2.542-2.542z" transform="translate(-300.668 -244.296)"/></g></svg>